TITLE ""
FILE "Step1_Track39.mp3" MP3
  TRACK 01 AUDIO
    TITLE "Step1_Track39_01"
    INDEX 01 00:00:00
  TRACK 02 AUDIO
    TITLE "Step1_Track39_02"
    INDEX 01 00:00:24
  TRACK 03 AUDIO
    TITLE "Step1_Track39_03"
    INDEX 01 00:02:03
  TRACK 04 AUDIO
    TITLE "Step1_Track39_04"
    INDEX 01 00:02:58
  TRACK 05 AUDIO
    TITLE "Step1_Track39_05"
    INDEX 01 00:03:56
  TRACK 06 AUDIO
    TITLE "Step1_Track39_06"
    INDEX 01 00:03:63
  TRACK 07 AUDIO
    TITLE "Step1_Track39_07"
    INDEX 01 00:05:06
  TRACK 08 AUDIO
    TITLE "Step1_Track39_08"
    INDEX 01 00:05:43
  TRACK 09 AUDIO
    TITLE "Step1_Track39_09"
    INDEX 01 00:06:42
  TRACK 10 AUDIO
    TITLE "Step1_Track39_10"
    INDEX 01 00:06:52
  TRACK 11 AUDIO
    TITLE "Step1_Track39_11"
    INDEX 01 00:08:00
  TRACK 12 AUDIO
    TITLE "Step1_Track39_12"
    INDEX 01 00:08:43
  TRACK 13 AUDIO
    TITLE "Step1_Track39_13"
    INDEX 01 00:09:41
  TRACK 14 AUDIO
    TITLE "Step1_Track39_14"
    INDEX 01 00:09:54
  TRACK 15 AUDIO
    TITLE "Step1_Track39_15"
    INDEX 01 00:11:41
  TRACK 16 AUDIO
    TITLE "Step1_Track39_16"
    INDEX 01 00:12:00
  TRACK 17 AUDIO
    TITLE "Step1_Track39_17"
    INDEX 01 00:13:03
  TRACK 18 AUDIO
    TITLE "Step1_Track39_18"
    INDEX 01 00:13:15
  TRACK 19 AUDIO
    TITLE "Step1_Track39_19"
    INDEX 01 00:15:04
  TRACK 20 AUDIO
    TITLE "Step1_Track39_20"
    INDEX 01 00:15:41
  TRACK 21 AUDIO
    TITLE "Step1_Track39_21"
    INDEX 01 00:16:43
  TRACK 22 AUDIO
    TITLE "Step1_Track39_22"
    INDEX 01 00:16:60
  TRACK 23 AUDIO
    TITLE "Step1_Track39_23"
    INDEX 01 00:18:40
  TRACK 24 AUDIO
    TITLE "Step1_Track39_24"
    INDEX 01 00:18:63
  TRACK 25 AUDIO
    TITLE "Step1_Track39_25"
    INDEX 01 00:19:68
  TRACK 26 AUDIO
    TITLE "Step1_Track39_26"
    INDEX 01 00:20:01
  TRACK 27 AUDIO
    TITLE "Step1_Track39_27"
    INDEX 01 00:22:08
  TRACK 28 AUDIO
    TITLE "Step1_Track39_28"
    INDEX 01 00:22:26
  TRACK 29 AUDIO
    TITLE "Step1_Track39_29"
    INDEX 01 00:23:35
  TRACK 30 AUDIO
    TITLE "Step1_Track39_30"
    INDEX 01 00:23:52
  TRACK 31 AUDIO
    TITLE "Step1_Track39_31"
    INDEX 01 00:25:18
  TRACK 32 AUDIO
    TITLE "Step1_Track39_32"
    INDEX 01 00:25:49
  TRACK 33 AUDIO
    TITLE "Step1_Track39_33"
    INDEX 01 00:26:29
  TRACK 34 AUDIO
    TITLE "Step1_Track39_34"
    INDEX 01 00:26:57
  TRACK 35 AUDIO
    TITLE "Step1_Track39_35"
    INDEX 01 00:28:22
  TRACK 36 AUDIO
    TITLE "Step1_Track39_36"
    INDEX 01 00:28:42
  TRACK 37 AUDIO
    TITLE "Step1_Track39_37"
    INDEX 01 00:29:49
  TRACK 38 AUDIO
    TITLE "Step1_Track39_38"
    INDEX 01 00:29:59
  TRACK 39 AUDIO
    TITLE "Step1_Track39_39"
    INDEX 01 00:32:02
  TRACK 40 AUDIO
    TITLE "Step1_Track39_40"
    INDEX 01 00:32:20
  TRACK 41 AUDIO
    TITLE "Step1_Track39_41"
    INDEX 01 00:33:22
  TRACK 42 AUDIO
    TITLE "Step1_Track39_42"
    INDEX 01 00:33:41
  TRACK 43 AUDIO
    TITLE "Step1_Track39_43"
    INDEX 01 00:35:46
